#!OML:ASF E:\Steps\Project 1\Capture day 1\Session 2\Subject.ASF
:FULLY-SPECIFIED
:DEGREES
364
root 11.5096 16.1614 12.2085 28.1257 -179.388 360.354
lowerback -21.2919 -0.884667 -8.6192
upperback -2.72271 0.365162 -2.58479
thorax 8.85586 -0.378195 2.12831
lowerneck 1.9572 0.308624 -3.09452
upperneck 8.61813 -0.517663 6.65913
head 2.44495 -0.391922 2.69236
rclavicle -1.19271e-014 -5.88403e-014
rhumerus -38.9815 13.2195 -100.956
rradius 68.1646
rwrist -13.7455
rhand -4.41197 -47.6898
rfingers 7.12502
rthumb 21.3583 -76.5327
lclavicle -1.19271e-014 -5.88403e-014
lhumerus -37.8939 -24.688 96.8294
lradius 71.2545
lwrist 4.20349
lhand -27.3831 -28.2312
lfingers 7.12502
lthumb -0.790079 1.74709
rfemur -43.8309 12.4142 16.9076
rtibia 27.7823
rfoot -21.0498 -8.26836
rtoes -30.1698
lfemur -39.0351 -11.5202 -15.6366
ltibia 30.8926
lfoot 160.461 194.643
ltoes -45.1772
365
root 11.5191 16.1702 12.2185 28.7496 -179.443 360.539
lowerback -22.0553 -0.970577 -8.34446
upperback -2.86366 0.216885 -2.50375
thorax 9.1245 -0.463166 2.01348
lowerneck 2.01101 0.314267 -3.05677
upperneck 8.5688 -0.510749 6.66334
head 2.41808 -0.389437 2.68578
rclavicle 9.54166e-015 -2.22639e-014
rhumerus -38.7208 12.6223 -100.583
rradius 66.8219
rwrist -14.2665
rhand -5.22559 -47.5457
rfingers 7.12502
rthumb 20.5766 -76.4752
lclavicle 9.54166e-015 -2.22639e-014
lhumerus -37.6572 -24.9093 96.293
lradius 69.8259
lwrist 4.63806
lhand -27.2912 -27.7123
lfingers 7.12502
lthumb -0.701294 2.26629
rfemur -44.054 12.2953 17.0283
rtibia 26.7662
rfoot -20.7786 -7.92022
rtoes -29.6046
lfemur -39.4707 -11.1454 -15.3247
ltibia 30.3123
lfoot 160.702 194.591
ltoes -45.3437
366
root 11.5247 16.1873 12.222 28.8931 -179.247 360.462
lowerback -22.0376 -1.13022 -8.2856
upperback -3.08748 -0.0642785 -2.40929
thorax 8.88949 -0.595832 2.00479
lowerneck 2.03447 0.336056 -3.13454
upperneck 8.57223 -0.483925 6.67007
head 2.41414 -0.379589 2.7027
rclavicle 0 2.38542e-014
rhumerus -38.8511 11.8787 -100.076
rradius 65.3524
rwrist -14.7283
rhand -6.06927 -47.6858
rfingers 7.12502
rthumb 19.7658 -76.7008
lclavicle 0 2.38542e-014
lhumerus -37.6782 -25.0771 95.9939
lradius 68.2149
lwrist 5.10547
lhand -27.2054 -27.5085
lfingers 7.12502
lthumb -0.618463 2.47035
rfemur -43.7108 12.0371 17
rtibia 25.785
rfoot -20.4952 -8.02183
rtoes -29.9277
lfemur -39.3647 -11.238 -15.2815
ltibia 29.6904
lfoot 160.851 194.472
ltoes -45.3476
367
root 11.5341 16.2013 12.2231 29.0446 -179.246 360.42
lowerback -21.9099 -1.15109 -8.24875
upperback -3.39914 -0.183387 -2.3799
thorax 8.48196 -0.650171 1.98749
lowerneck 1.99995 0.320393 -3.21717
upperneck 8.60389 -0.508578 6.69686
head 2.43333 -0.393412 2.72756
rclavicle 3.57812e-015 3.02153e-014
rhumerus -39.1351 10.9024 -99.5477
rradius 63.8599
rwrist -15.0896
rhand -6.48791 -47.341
rfingers 7.12502
rthumb 19.3633 -76.3969
lclavicle 3.57812e-015 3.02153e-014
lhumerus -37.8438 -25.3929 95.8078
lradius 66.5023
lwrist 5.66613
lhand -26.8898 -27.4744
lfingers 7.12502
lthumb -0.31361 2.50511
rfemur -43.4985 11.8976 16.992
rtibia 25.0107
rfoot -20.1718 -8.01143
rtoes -30.6247
lfemur -39.2528 -11.1389 -15.2769
ltibia 29.0884
lfoot 161.082 194.434
ltoes -45.473
368
root 11.5415 16.2148 12.2242 29.2214 -179.259 360.376
lowerback -21.8213 -1.08579 -8.10948
upperback -3.68215 -0.19958 -2.43702
thorax 8.11948 -0.654672 1.84632
lowerneck 1.94993 0.27052 -3.24383
upperneck 8.62507 -0.578865 6.73589
head 2.45421 -0.427378 2.74558
rclavicle -2.18663e-015 1.43125e-014
rhumerus -39.4394 9.7472 -99.0199
rradius 62.2544
rwrist -15.7007
rhand -7.78058 -45.3819
rfingers 7.12502
rthumb 18.12 -74.5579
lclavicle -2.18663e-015 1.43125e-014
lhumerus -37.9976 -25.7905 95.6022
lradius 64.7848
lwrist 6.07234
lhand -26.5555 -26.934
lfingers 7.12502
lthumb 0.00917712 3.04574
rfemur -43.3086 11.7723 16.9748
rtibia 24.1945
rfoot -19.7339 -7.88518
rtoes -30.9469
lfemur -39.2373 -11.0598 -15.2801
ltibia 28.6444
lfoot 161.327 194.485
ltoes -45.7856
369
root 11.5451 16.231 12.2238 29.278 -179.22 360.28
lowerback -21.7664 -1.06686 -7.98803
upperback -3.77683 -0.226834 -2.45551
thorax 7.9877 -0.663808 1.75192
lowerneck 1.8396 0.257466 -3.27582
upperneck 8.64196 -0.5918 6.74735
head 2.48109 -0.430796 2.75631
rclavicle 1.78906e-015 3.65764e-014
rhumerus -39.4553 8.50165 -98.287
rradius 60.6593
rwrist -15.7563
rhand -9.04145 -44.1305
rfingers 7.12502
rthumb 16.9065 -73.4147
lclavicle 1.78906e-015 3.65764e-014
lhumerus -37.7453 -26.0351 95.3125
lradius 62.866
lwrist 6.12241
lhand -26.3616 -26.096
lfingers 7.12502
lthumb 0.196524 3.88369
rfemur -42.9869 11.8845 16.8001
rtibia 23.416
rfoot -19.351 -8.05596
rtoes -30.8759
lfemur -39.0922 -11.1262 -15.3422
ltibia 28.1738
lfoot 161.606 194.517
ltoes -45.9077
370
root 11.5486 16.2475 12.2215 29.2789 -179.167 360.207
lowerback -21.8579 -1.08284 -7.86935
upperback -3.676 -0.243514 -2.44117
thorax 8.15145 -0.66898 1.69316
lowerneck 1.68541 0.279407 -3.32243
upperneck 8.66524 -0.552664 6.7378
head 2.515 -0.407329 2.76376
rclavicle 1.39149e-015 -1.74931e-014
rhumerus -39.0014 7.21618 -97.404
rradius 59.0313
rwrist -14.7008
rhand -9.86116 -42.3756
rfingers 7.12502
rthumb 16.1173 -71.7254
lclavicle 1.39149e-015 -1.74931e-014
lhumerus -37.0636 -26.1478 94.8545
lradius 60.7235
lwrist 5.95864
lhand -25.6464 -25.1246
lfingers 7.12502
lthumb 0.887236 4.85335
rfemur -42.6415 12.0523 16.637
rtibia 22.7604
rfoot -19.0181 -8.28103
rtoes -30.4343
lfemur -38.8378 -11.238 -15.378
ltibia 27.5938
lfoot 161.907 194.589
ltoes -45.9029
371
root 11.5552 16.2567 12.2186 29.4538 -179.265 360.269
lowerback -22.2252 -0.993973 -7.69301
upperback -3.61746 -0.124997 -2.44824
thorax 8.4029 -0.616246 1.61309
lowerneck 1.55159 0.284665 -3.37432
upperneck 8.68027 -0.537123 6.74414
head 2.5441 -0.3959 2.7771
rclavicle 2.78299e-015 -4.45278e-014
rhumerus -38.4879 5.8086 -96.5169
rradius 57.1021
rwrist -13.4606
rhand -9.45593 -41.6952
rfingers 7.12502
rthumb 16.5075 -71.013
lclavicle 2.78299e-015 -4.45278e-014
lhumerus -36.4223 -26.1823 94.3373
lradius 58.58
lwrist 5.39975
lhand -23.783 -22.8962
lfingers 7.12502
lthumb 2.68694 7.06665
rfemur -42.5996 12.1986 16.6194
rtibia 22.2576
rfoot -18.7303 -8.23356
rtoes -29.9906
lfemur -38.7769 -11.2653 -15.2341
ltibia 27.071
lfoot 162.081 194.797
ltoes -45.5494
372
root 11.5674 16.2701 12.2235 29.5905 -179.385 360.259
lowerback -22.282 -0.903046 -7.67799
upperback -3.72074 -0.0273319 -2.48758
thorax 8.30893 -0.572807 1.58993
lowerneck 1.47007 0.272653 -3.43396
upperneck 8.69526 -0.549283 6.76301
head 2.56552 -0.400237 2.7954
rclavicle -5.36719e-015 -6.36111e-014
rhumerus -38.2304 4.33343 -95.6726
rradius 54.9522
rwrist -12.3514
rhand -8.59529 -44.7495
rfingers 7.12502
rthumb 17.336 -73.9964
lclavicle -5.36719e-015 -6.36111e-014
lhumerus -36.1866 -26.0159 93.9103
lradius 56.6453
lwrist 4.36175
lhand -23.7987 -23.303
lfingers 7.12502
lthumb 2.67173 6.66006
rfemur -42.5614 12.4252 16.5044
rtibia 21.785
rfoot -18.5024 -8.26501
rtoes -29.8233
lfemur -38.7211 -11.355 -15.1456
ltibia 26.6358
lfoot 162.177 194.969
ltoes -45.3082
373
root 11.5778 16.2803 12.226 29.7814 -179.69 360.245
lowerback -22.4415 -0.809925 -7.70196
upperback -3.82711 0.0858889 -2.53108
thorax 8.26396 -0.527504 1.58708
lowerneck 1.44736 0.27251 -3.40796
upperneck 8.71991 -0.549384 6.73857
head 2.57742 -0.399711 2.78269
rclavicle 1.59028e-015 7.4743e-014
rhumerus -38.0012 3.04646 -94.8479
rradius 52.742
rwrist -11.165
rhand -8.74687 -50.3794
rfingers 7.12502
rthumb 17.1901 -79.6391
lclavicle 1.59028e-015 7.4743e-014
lhumerus -35.9944 -25.6049 93.4504
lradius 54.7717
lwrist 3.34628
lhand -23.7588 -22.5471
lfingers 7.12502
lthumb 2.71035 7.41544
rfemur -42.5998 12.809 16.2807
rtibia 21.284
rfoot -18.2413 -8.2984
rtoes -29.9235
lfemur -38.6493 -11.4807 -15.0769
ltibia 26.0828
lfoot 162.407 195.379
ltoes -45.6403
